2168 3 0
1    438    437    297
2    15    790    543
3    37    36    34
4    1133    1101    1136
5    1014    71    18
6    1012    1009    107
7    439    275    288
8    753    667    741
9    214    216    146
10    1012    49    1009
11    865    937    939
12    1131    1020    1019
13    1119    52    1050
14    90    14    995
15    782    563    539
16    537    732    538
17    576    569    87
18    980    979    20
19    1136    8    1014
20    1072    1027    7
21    645    551    16
22    777    554    550
23    1087    20    979
24    76    73    553
25    1095    19    1120
26    20    24    21
27    38    27    37
28    1094    1120    1121
29    1119    1051    1049
30    1035    31    1067
31    1074    1016    1017
32    1062    1024    1063
33    1078    1075    1074
34    41    46    1063
35    546    9    39
36    1066    1023    1065
37    1023    42    41
38    1073    33    1072
39    32    1072    1066
40    614    615    17
41    1064    32    1065
42    34    38    37
43    1088    36    26
44    25    1088    1095
45    39    981    546
46    1090    1099    1121
47    35    26    36
48    1088    26    19
49    1072    32    1028
50    983    546    982
51    22    1010    21
52    1023    40    42
53    27    40    1023
54    43    48    47
55    1080    995    43
56    1063    1024    41
57    36    1088    34
58    38    40    27
59    53    1055    1051
60    48    46    47
61    9    545    89
62    45    1022    44
63    1058    1059    1029
64    1028    1057    1027
65    9    995    1080
66    50    107    1009
67    1103    50    51
68    1060    1029    1041
69    93    94    14
70    1005    1084    1086
71    108    864    898
72    97    991    1085
73    48    43    1103
74    1085    1084    97
75    1053    52    1052
76    1045    53    1033
77    995    50    43
78    1028    1058    1057
79    1079    1071    52
80    1019    1016    55
81    936    938    937
82    899    112    898
83    1008    94    95
84    1132    110    864
85    235    145    234
86    393    388    456
87    411    269    413
88    816    819    965
89    1130    751    977
90    208    202    207
91    238    192    182
92    493    170    171
93    759    626    631
94    596    593    592
95    518    763    764
96    623    625    590
97    738    594    654
98    21    73    76
99    633    619    618
100    67    635    611
101    1013    1011    18
102    1133    22    1102
103    616    17    617
104    1137    1136    1014
105    645    605    644
106    1137    22    1136
107    791    570    571
108    983    982    77
109    792    88    787
110    782    540    781
111    77    980    20
112    74    546    983
113    77    21    76
114    642    86    555
115    90    89    790
116    545    544    89
117    706    563    705
118    556    584    583
119    678    662    674
120    782    996    540
121    681    654    659
122    1122    92    93
123    716    163    509
124    685    82    515
125    590    596    704
126    693    683    513
127    653    801    794
128    600    622    624
129    633    758    68
130    763    762    521
131    582    643    581
132    581    638    649
133    75    567    74
134    777    776    87
135    88    792    567
136    789    791    543
137    39    40    981
138    572    780    778
139    9    89    90
140    1024    1065    1023
141    783    781    540
142    997    996    547
143    480    149    250
144    216    215    146
145    1008    104    1003
146    94    1008    13
147    1122    12    969
148    1122    969    145
149    1068    1067    1063
150    995    107    50
151    105    1086    1085
152    145    235    92
153    992    101    994
154    54    1070    1017
155    1006    96    100
156    1005    1086    105
157    97    989    991
158    103    104    58
159    112    1000    898
160    101    56    100
161    993    994    988
162    999    103    108
163    1007    96    1006
164    124    322    1132
165    98    1081    99
166    58    104    95
167    1002    103    1001
168    991    989    106
169    106    989    1012
170    14    94    107
171    51    1009    49
172    95    104    1008
173    93    92    94
174    329    942    938
175    881    916    876
176    862    882    890
177    878    876    877
178    1000    102    999
179    923    893    918
180    999    998    1001
181    920    909    895
182    910    894    945
183    895    909    945
184    113    993    988
185    920    895    921
186    896    900    907
187    926    911    918
188    926    892    925
189    868    865    858
190    128    934    129
191    255    320    319
192    332    350    333
193    331    328    330
194    463    281    362
195    330    324    331
196    449    294    448
197    328    341    123
198    449    254    320
199    104    103    1002
200    547    976    12
201    354    336    353
202    943    120    942
203    867    875    868
204    858    941    934
205    461    935    339
206    339    935    857
207    462    126    461
208    1124    335    336
209    1124    336    462
210    455    1124    338
211    131    455    333
212    133    335    334
213    961    305    308
214    277    292    290
215    357    257    356
216    220    217    209
217    476    150    244
218    844    154    155
219    838    397    137
220    431    416    434
221    835    834    395
222    847    820    154
223    845    840    154
224    842    843    61
225    840    140    814
226    173    972    191
227    169    175    170
228    678    672    511
229    232    479    808
230    195    160    161
231    954    151    953
232    539    658    782
233    243    479    478
234    232    808    206
235    967    1104    180
236    469    1113    1112
237    248    475    243
238    958    400    812
239    475    150    249
240    212    215    203
241    250    149    249
242    752    748    743
243    246    213    247
244    474    213    246
245    963    817    962
246    425    421    420
247    842    846    841
248    816    965    815
249    816    815    817
250    965    819    964
251    401    394    822
252    224    222    220
253    846    845    841
254    957    414    416
255    193    190    172
256    485    175    168
257    487    11    488
258    968    399    400
259    174    485    975
260    806    487    488
261    240    239    143
262    231    180    229
263    181    482    201
264    178    172    188
265    977    510    186
266    498    162    495
267    492    721    718
268    974    488    157
269    674    668    673
270    491    697    696
271    488    807    806
272    499    170    162
273    500    498    167
274    798    166    796
275    176    175    174
276    974    970    158
277    796    718    719
278    169    800    168
279    169    168    175
280    802    166    486
281    177    171    159
282    169    170    499
283    174    173    176
284    719    798    796
285    143    483    190
286    177    159    176
287    190    188    172
288    225    209    210
289    191    972    156
290    140    846    842
291    499    162    498
292    194    191    193
293    190    240    143
294    489    165    806
295    192    971    155
296    171    170    159
297    240    191    239
298    167    501    500
299    484    189    179
300    251    470    250
301    969    233    145
302    155    971    844
303    180    231    230
304    214    213    474
305    209    217    211
306    210    182    225
307    238    182    202
308    151    148    223
309    206    144    230
310    178    177    172
311    509    508    506
312    966    184    804
313    235    124    95
314    1122    91    12
315    163    508    509
316    799    507    505
317    976    751    973
318    755    754    742
319    193    191    240
320    486    485    802
321    189    178    188
322    184    1130    804
323    195    171    178
324    972    158    970
325    175    176    159
326    807    142    486
327    156    970    971
328    482    143    200
329    241    143    238
330    177    194    172
331    193    240    190
332    156    972    970
333    161    171    195
334    496    497    164
335    966    180    230
336    237    215    216
337    236    197    199
338    210    207    182
339    231    216    214
340    189    188    179
341    241    238    202
342    199    197    198
343    481    181    196
344    229    237    216
345    481    196    183
346    198    201    199
347    236    208    207
348    478    242    248
349    209    224    220
350    207    202    182
351    183    966    160
352    218    226    220
353    751    187    750
354    231    214    230
355    123    341    329
356    234    480    250
357    146    215    212
358    481    482    181
359    62    155    154
360    199    201    208
361    173    191    194
362    247    228    246
363    847    154    840
364    1104    967    196
365    217    204    212
366    218    220    222
367    212    203    211
368    247    213    204
369    230    214    206
370    210    209    211
371    211    207    210
372    205    474    246
373    215    237    203
374    197    236    237
375    237    229    197
376    229    216    231
377    226    217    220
378    477    476    228
379    192    238    239
380    147    952    809
381    149    479    473
382    251    954    147
383    148    218    223
384    954    251    150
385    62    224    225
386    217    212    211
387    819    816    152
388    223    218    222
389    391    405    402
390    820    847    964
391    207    211    203
392    246    228    245
393    62    154    820
394    62    221    224
395    232    242    478
396    227    204    226
397    227    218    148
398    247    204    227
399    227    226    218
400    204    217    226
401    236    207    203
402    1104    197    229
403    213    146    212
404    477    148    151
405    183    967    966
406    967    180    966
407    808    480    233
408    144    969    185
409    245    248    205
410    206    808    233
411    969    206    233
412    232    206    214
413    967    183    196
414    92    235    95
415    198    196    181
416    484    183    160
417    202    201    200
418    237    236    203
419    179    481    484
420    971    141    844
421    172    194    193
422    239    238    143
423    975    142    974
424    483    143    482
425    190    179    188
426    200    241    202
427    803    63    494
428    476    245    228
429    471    1113    469
430    810    151    223
431    214    474    242
432    192    225    182
433    242    474    205
434    245    476    244
435    482    481    483
436    213    212    204
437    205    248    242
438    228    247    227
439    243    478    248
440    243    475    473
441    955    954    953
442    251    250    249
443    954    477    151
444    105    1008    1003
445    475    248    244
446    477    150    476
447    374    290    288
448    372    278    356
449    480    479    149
450    459    282    1114
451    301    297    300
452    327    318    326
453    350    260    333
454    326    317    122
455    290    295    293
456    465    281    311
457    253    950    949
458    316    308    315
459    259    302    304
460    466    261    348
461    301    303    302
462    131    335    1124
463    304    302    303
464    133    334    344
465    443    444    130
466    466    265    442
467    343    336    335
468    349    348    346
469    444    262    442
470    305    134    349
471    310    300    299
472    1105    375    135
473    424    279    421
474    848    850    849
475    433    274    430
476    413    269    415
477    810    957    956
478    447    385    405
479    379    409    450
480    427    376    418
481    432    272    430
482    1110    284    59
483    272    409    408
484    430    272    408
485    459    458    274
486    1113    809    273
487    376    378    417
488    1110    283    1111
489    275    951    1109
490    377    430    408
491    417    378    406
492    283    282    286
493    1116    960    265
494    299    257    310
495    377    1105    135
496    429    358    428
497    424    363    279
498    856    364    854
499    280    417    406
500    313    266    464
501    355    356    257
502    471    252    470
503    1112    282    467
504    467    282    283
505    1109    951    948
506    355    257    299
507    285    59    950
508    254    448    445
509    1111    283    1109
510    276    441    453
511    374    372    277
512    289    439    352
513    440    282    459
514    291    298    296
515    301    438    297
516    1114    282    1112
517    275    439    951
518    296    295    291
519    296    437    436
520    438    317    256
521    811    294    449
522    951    289    948
523    292    291    295
524    950    811    285
525    277    290    374
526    256    323    445
527    322    123    110
528    374    288    373
529    355    299    291
530    355    277    435
531    299    297    298
532    465    360    281
533    122    301    302
534    351    253    293
535    445    323    319
536    305    258    307
537    438    436    437
538    300    258    303
539    361    360    429
540    292    355    291
541    460    341    125
542    303    301    300
543    345    346    261
544    347    302    259
545    317    301    122
546    961    308    960
547    133    344    444
548    258    304    303
549    371    310    257
550    311    316    315
551    266    308    316
552    134    305    961
553    325    324    326
554    361    281    360
555    429    359    361
556    299    298    291
557    313    1128    1129
558    357    465    371
559    428    358    278
560    986    266    985
561    312    854    267
562    359    426    370
563    472    265    263
564    363    314    362
565    357    360    465
566    359    370    361
567    311    281    463
568    309    306    307
569    856    363    424
570    258    309    307
571    317    326    318
572    255    330    328
573    294    436    448
574    864    863    111
575    448    436    445
576    436    294    296
577    323    318    255
578    318    256    317
579    321    124    285
580    322    124    321
581    324    327    326
582    55    1131    1019
583    300    309    258
584    321    320    322
585    332    331    324
586    353    337    354
587    347    346    260
588    454    342    125
589    317    438    301
590    347    259    346
591    942    944    943
592    326    122    325
593    328    123    255
594    460    125    342
595    944    460    339
596    903    882    862
597    354    337    10
598    327    324    330
599    1124    455    131
600    460    342    339
601    345    260    346
602    345    261    334
603    348    261    346
604    327    255    318
605    338    462    461
606    305    349    304
607    935    941    857
608    455    342    454
609    443    343    133
610    354    10    129
611    335    133    343
612    127    932    10
613    935    461    126
614    461    339    342
615    329    110    123
616    58    1132    864
617    332    454    331
618    879    878    118
619    942    340    944
620    330    255    327
621    942    329    340
622    334    131    333
623    353    343    132
624    472    264    265
625    334    335    131
626    444    442    130
627    346    259    349
628    349    134    348
629    325    260    350
630    285    449    321
631    122    302    347
632    134    961    1116
633    325    350    324
634    299    300    297
635    1116    961    960
636    123    320    255
637    325    347    260
638    253    352    293
639    352    253    289
640    296    293    295
641    951    439    289
642    332    455    454
643    337    353    132
644    353    336    343
645    132    343    443
646    285    124    235
647    987    985    984
648    355    435    356
649    298    297    437
650    315    465    311
651    466    1116    265
652    370    363    362
653    422    851    423
654    419    359    418
655    422    364    421
656    418    376    417
657    364    424    421
658    314    463    362
659    428    278    427
660    370    279    363
661    363    856    855
662    855    854    1128
663    380    446    379
664    457    848    387
665    420    407    425
666    851    366    365
667    381    386    390
668    833    368    832
669    834    452    403
670    829    962    839
671    404    403    452
672    825    837    824
673    359    429    428
674    852    268    383
675    1128    854    312
676    316    464    266
677    300    310    309
678    371    257    357
679    453    288    276
680    356    358    357
681    288    290    439
682    409    378    408
683    288    275    287
684    277    355    292
685    426    279    370
686    435    277    372
687    372    374    373
688    433    430    377
689    1105    377    376
690    441    459    274
691    407    419    280
692    427    278    375
693    450    380    379
694    446    380    268
695    410    411    451
696    390    392    387
697    451    409    410
698    136    412    152
699    451    271    450
700    270    384    382
701    391    447    405
702    406    407    280
703    1108    412    1107
704    382    271    1106
705    1106    411    413
706    386    385    447
707    848    381    390
708    386    392    390
709    851    365    423
710    457    387    456
711    138    834    831
712    828    139    825
713    139    962    958
714    366    848    457
715    386    381    384
716    368    385    853
717    833    821    822
718    456    387    392
719    404    388    393
720    368    405    385
721    388    60    366
722    402    367    391
723    456    392    393
724    959    958    812
725    395    822    823
726    828    821    839
727    137    812    398
728    2    398    399
729    399    968    61
730    219    964    819
731    959    825    139
732    390    387    848
733    386    447    392
734    403    404    367
735    401    395    403
736    397    837    825
737    403    367    401
738    393    392    391
739    850    366    851
740    394    401    402
741    853    270    1107
742    380    450    271
743    441    276    440
744    453    433    135
745    268    425    446
746    408    378    377
747    468    809    1113
748    434    269    410
749    957    416    809
750    406    409    379
751    432    434    410
752    1107    270    1106
753    413    1108    1106
754    223    221    219
755    956    957    952
756    381    383    382
757    852    381    848
758    817    818    962
759    413    412    1108
760    809    952    957
761    412    415    414
762    458    1114    273
763    416    414    415
764    271    382    380
765    419    420    426
766    287    275    286
767    378    376    377
768    409    451    450
769    446    425    407
770    424    364    856
771    423    365    267
772    850    848    366
773    1106    271    411
774    369    851    422
775    1129    1128    1127
776    1128    312    1127
777    854    364    267
778    314    464    463
779    856    854    855
780    379    407    406
781    419    418    280
782    426    420    279
783    314    1128    313
784    428    418    359
785    435    372    356
786    429    360    358
787    371    306    309
788    373    135    375
789    278    358    356
790    451    411    271
791    273    431    458
792    274    432    430
793    434    416    269
794    427    418    428
795    458    432    274
796    135    433    377
797    376    427    1105
798    432    410    272
799    269    411    410
800    373    375    372
801    306    465    315
802    294    811    351
803    445    319    254
804    296    351    293
805    305    304    258
806    256    318    323
807    449    448    254
808    352    290    293
809    949    948    289
810    288    453    373
811    1109    286    275
812    431    434    432
813    1114    1112    273
814    264    130    442
815    444    344    262
816    344    334    261
817    344    261    262
818    261    466    262
819    264    442    265
820    437    296    298
821    438    445    436
822    446    407    379
823    852    849    268
824    384    381    382
825    383    380    382
826    949    289    253
827    323    255    319
828    295    290    292
829    250    59    234
830    962    818    958
831    425    268    849
832    273    416    431
833    809    468    147
834    823    835    395
835    835    824    831
836    453    135    373
837    418    417    280
838    942    120    938
839    324    350    332
840    333    455    332
841    129    462    354
842    392    447    391
843    849    369    425
844    457    388    366
845    402    401    367
846    416    415    269
847    470    147    471
848    441    274    433
849    1111    1109    948
850    125    341    331
851    340    341    460
852    354    462    336
853    129    10    128
854    934    126    129
855    869    933    932
856    308    307    306
857    1129    1127    121
858    987    263    265
859    306    315    308
860    360    357    358
861    309    310    371
862    1116    348    134
863    333    345    334
864    449    285    811
865    956    953    810
866    469    467    252
867    234    145    233
868    1113    471    468
869    1112    467    469
870    250    470    59
871    147    954    955
872    957    152    414
873    1113    273    1112
874    304    349    259
875    960    308    266
876    233    480    234
877    242    232    214
878    146    213    214
879    155    225    192
880    149    473    249
881    471    147    468
882    955    952    147
883    150    477    954
884    246    245    205
885    228    227    148
886    244    150    475
887    479    232    478
888    148    477    228
889    251    249    150
890    144    206    969
891    244    248    245
892    483    179    190
893    208    201    202
894    173    194    176
895    483    481    179
896    484    481    183
897    200    143    241
898    189    484    160
899    181    201    198
900    178    171    177
901    170    175    159
902    975    485    142
903    195    178    189
904    489    486    798
905    488    974    807
906    807    974    142
907    719    720    489
908    490    719    718
909    164    503    496
910    671    697    491
911    675    511    716
912    496    503    495
913    495    503    167
914    799    502    503
915    161    493    171
916    721    717    718
917    493    161    803
918    507    164    506
919    504    503    502
920    797    502    492
921    196    198    1104
922    510    506    186
923    803    494    493
924    499    498    800
925    504    167    503
926    166    802    500
927    165    489    720
928    496    494    63
929    141    970    157
930    798    486    166
931    499    800    169
932    798    719    489
933    1126    724    717
934    160    803    161
935    494    162    493
936    800    498    500
937    498    495    167
938    715    713    714
939    726    725    714
940    797    492    796
941    804    497    63
942    722    723    505
943    720    719    490
944    509    676    675
945    730    676    510
946    721    722    717
947    713    672    670
948    80    736    735
949    185    751    1130
950    660    665    595
951    708    512    688
952    712    696    697
953    716    509    675
954    687    514    686
955    527    526    515
956    528    527    515
957    515    795    528
958    529    597    652
959    653    771    516
960    603    703    702
961    519    524    520
962    651    653    652
963    521    767    766
964    648    641    639
965    599    767    762
966    71    617    69
967    765    608    67
968    518    805    520
969    601    600    84
970    518    520    763
971    5    525    526
972    524    526    517
973    687    515    514
974    795    659    594
975    517    526    527
976    794    801    528
977    528    801    527
978    529    793    597
979    801    523    517
980    630    586    587
981    652    597    598
982    68    604    605
983    533    532    534
984    640    85    534
985    632    583    580
986    600    1115    622
987    629    580    628
988    624    622    531
989    596    591    593
990    740    589    596
991    69    606    1013
992    605    646    644
993    647    639    644
994    740    537    589
995    739    592    738
996    537    626    759
997    679    655    680
998    736    655    756
999    572    15    543
1000    790    89    789
1001    700    699    578
1002    562    563    781
1003    779    573    562
1004    627    626    538
1005    576    575    560
1006    787    544    792
1007    772    774    566
1008    90    997    91
1009    547    996    782
1010    91    14    90
1011    980    982    978
1012    39    1080    44
1013    41    42    45
1014    76    983    77
1015    553    777    87
1016    91    997    547
1017    562    781    778
1018    555    554    551
1019    641    638    643
1020    558    557    556
1021    650    648    532
1022    550    554    558
1023    777    550    776
1024    535    642    551
1025    553    73    16
1026    552    554    777
1027    605    604    646
1028    645    606    605
1029    553    16    552
1030    554    552    551
1031    535    645    644
1032    542    561    574
1033    584    86    582
1034    549    556    583
1035    627    536    626
1036    559    556    549
1037    775    707    78
1038    699    549    579
1039    776    550    559
1040    559    550    558
1041    78    707    700
1042    75    569    567
1043    705    775    78
1044    575    559    549
1045    785    571    570
1046    627    706    548
1047    15    572    540
1048    658    547    782
1049    773    784    565
1050    786    565    785
1051    569    542    568
1052    566    774    88
1053    784    541    780
1054    565    786    774
1055    564    574    573
1056    574    561    573
1057    72    73    1011
1058    569    75    87
1059    700    707    577
1060    564    773    772
1061    577    707    560
1062    792    545    74
1063    780    571    784
1064    789    544    788
1065    788    544    787
1066    773    565    772
1067    778    781    783
1068    775    561    707
1069    788    570    791
1070    569    566    567
1071    577    575    699
1072    776    559    576
1073    578    705    700
1074    542    574    568
1075    558    555    557
1076    86    557    555
1077    583    582    580
1078    744    79    538
1079    579    548    578
1080    588    631    586
1081    638    650    649
1082    641    643    642
1083    536    628    585
1084    648    640    532
1085    623    533    531
1086    641    535    639
1087    584    556    557
1088    542    576    560
1089    628    536    627
1090    586    631    536
1091    584    582    583
1092    632    548    579
1093    585    649    536
1094    648    638    641
1095    537    759    589
1096    624    602    637
1097    602    624    620
1098    740    733    537
1099    704    596    589
1100    623    531    622
1101    682    691    684
1102    623    704    66
1103    524    519    5
1104    625    623    530
1105    82    685    691
1106    530    591    625
1107    737    655    736
1108    586    630    588
1109    704    589    630
1110    756    655    753
1111    737    680    655
1112    594    592    593
1113    82    690    659
1114    626    537    538
1115    84    600    637
1116    704    630    66
1117    771    762    520
1118    530    1115    597
1119    769    607    768
1120    524    523    520
1121    651    599    771
1122    763    520    762
1123    771    599    762
1124    601    768    599
1125    769    770    607
1126    701    522    635
1127    621    636    602
1128    770    769    84
1129    702    522    701
1130    516    523    801
1131    551    645    535
1132    1013    606    72
1133    621    602    620
1134    69    610    619
1135    640    639    647
1136    644    639    535
1137    766    608    765
1138    703    618    522
1139    610    760    757
1140    624    637    600
1141    1013    72    1011
1142    612    757    634
1143    613    761    634
1144    522    618    1125
1145    635    612    611
1146    615    614    760
1147    760    613    757
1148    69    617    610
1149    21    1010    73
1150    617    615    610
1151    616    617    71
1152    70    616    71
1153    18    1137    1014
1154    765    67    764
1155    605    606    68
1156    633    68    619
1157    619    610    618
1158    534    531    533
1159    86    642    643
1160    85    646    621
1161    1115    598    597
1162    83    597    793
1163    623    622    530
1164    650    586    649
1165    85    620    534
1166    768    607    766
1167    637    602    636
1168    690    689    660
1169    637    770    84
1170    680    595    679
1171    583    579    549
1172    650    587    586
1173    706    705    578
1174    700    577    699
1175    632    580    629
1176    66    533    623
1177    629    627    548
1178    642    555    551
1179    587    66    630
1180    581    649    585
1181    588    759    631
1182    699    575    549
1183    548    632    629
1184    69    619    606
1185    633    618    703
1186    760    614    613
1187    521    765    764
1188    610    757    618
1189    762    767    521
1190    764    763    521
1191    532    587    650
1192    620    531    534
1193    85    647    646
1194    643    638    581
1195    640    648    639
1196    587    532    533
1197    534    532    640
1198    606    16    72
1199    1115    601    598
1200    86    643    582
1201    585    580    582
1202    579    583    632
1203    569    568    566
1204    777    553    552
1205    557    86    584
1206    646    604    621
1207    1011    73    1010
1208    603    636    758
1209    620    624    531
1210    768    84    769
1211    647    85    640
1212    621    620    85
1213    16    551    552
1214    648    650    638
1215    642    535    641
1216    585    582    581
1217    536    649    586
1218    630    589    588
1219    628    627    629
1220    795    515    82
1221    652    598    651
1222    801    653    516
1223    625    591    590
1224    590    591    596
1225    652    653    529
1226    737    736    80
1227    734    80    735
1228    628    580    585
1229    667    755    742
1230    539    563    706
1231    548    706    578
1232    160    804    803
1233    65    755    667
1234    572    783    540
1235    187    751    976
1236    591    530    597
1237    515    525    514
1238    679    595    664
1239    654    737    738
1240    723    492    502
1241    683    708    688
1242    662    676    730
1243    662    678    675
1244    743    746    742
1245    735    732    734
1246    594    593    83
1247    729    668    662
1248    657    750    749
1249    512    692    689
1250    82    691    690
1251    710    666    512
1252    1123    747    735
1253    185    969    973
1254    742    752    743
1255    731    750    657
1256    678    511    675
1257    713    670    491
1258    696    695    694
1259    662    730    729
1260    715    163    716
1261    683    688    684
1262    710    670    672
1263    669    674    673
1264    669    710    672
1265    729    65    728
1266    662    668    674
1267    973    751    185
1268    713    511    672
1269    506    164    497
1270    729    661    668
1271    804    1130    497
1272    65    729    730
1273    665    661    664
1274    694    726    491
1275    163    715    1126
1276    692    665    660
1277    727    753    663
1278    83    793    594
1279    512    689    688
1280    673    666    710
1281    746    741    667
1282    698    513    687
1283    690    660    659
1284    690    682    689
1285    5    526    524
1286    670    708    671
1287    696    712    711
1288    687    513    685
1289    663    728    727
1290    795    793    528
1291    690    691    682
1292    698    687    686
1293    82    659    795
1294    681    660    595
1295    710    669    673
1296    685    515    687
1297    692    660    689
1298    681    680    654
1299    692    512    666
1300    670    710    709
1301    688    689    682
1302    666    673    677
1303    1123    746    656
1304    698    693    513
1305    81    711    698
1306    726    490    725
1307    712    693    698
1308    712    698    711
1309    64    720    726
1310    697    693    712
1311    491    696    694
1312    691    685    684
1313    693    671    683
1314    81    698    686
1315    576    559    575
1316    553    87    75
1317    706    627    538
1318    569    576    542
1319    84    768    601
1320    766    701    608
1321    758    636    604
1322    758    604    68
1323    701    607    702
1324    522    1125    635
1325    631    626    536
1326    533    66    587
1327    775    705    562
1328    563    562    705
1329    538    539    706
1330    578    699    579
1331    563    782    781
1332    707    561    560
1333    709    512    708
1334    708    683    671
1335    684    513    683
1336    710    512    709
1337    676    509    506
1338    688    682    684
1339    81    695    711
1340    671    693    697
1341    671    491    670
1342    711    695    696
1343    722    1126    717
1344    669    672    678
1345    678    674    669
1346    506    508    507
1347    722    505    508
1348    716    713    715
1349    713    716    511
1350    665    677    661
1351    714    724    715
1352    163    1126    722
1353    495    162    494
1354    725    718    717
1355    488    11    157
1356    166    797    796
1357    714    713    491
1358    508    505    507
1359    507    799    164
1360    799    723    502
1361    796    492    718
1362    1130    186    497
1363    491    726    714
1364    725    717    724
1365    726    694    64
1366    708    670    709
1367    726    720    490
1368    797    501    504
1369    797    166    501
1370    595    680    681
1371    677    673    668
1372    727    667    753
1373    595    665    664
1374    677    668    661
1375    663    664    728
1376    742    754    752
1377    677    665    666
1378    676    506    510
1379    755    657    754
1380    1123    735    756
1381    735    736    756
1382    1123    756    741
1383    739    733    740
1384    739    80    733
1385    748    752    749
1386    594    738    592
1387    666    665    692
1388    756    753    741
1389    660    681    659
1390    734    733    80
1391    80    739    738
1392    592    740    596
1393    83    593    591
1394    746    1123    741
1395    740    592    739
1396    704    623    590
1397    733    732    537
1398    728    664    661
1399    745    743    744
1400    731    657    755
1401    79    744    743
1402    658    187    547
1403    742    746    667
1404    656    745    747
1405    748    79    743
1406    732    744    538
1407    658    539    748
1408    752    657    749
1409    746    743    745
1410    187    658    749
1411    745    656    746
1412    752    754    657
1413    790    997    90
1414    747    744    732
1415    727    728    65
1416    731    730    510
1417    803    804    63
1418    977    731    510
1419    977    750    731
1420    656    747    1123
1421    750    187    749
1422    654    680    737
1423    679    753    655
1424    730    755    65
1425    65    667    727
1426    661    729    728
1427    731    755    730
1428    747    745    744
1429    663    753    679
1430    612    1125    757
1431    613    614    761
1432    647    644    646
1433    1133    1136    22
1434    589    759    588
1435    738    737    80
1436    634    611    612
1437    703    522    702
1438    635    67    608
1439    760    610    615
1440    795    594    793
1441    526    525    515
1442    519    520    805
1443    607    701    766
1444    1125    618    757
1445    766    765    521
1446    634    609    611
1447    636    770    637
1448    703    603    633
1449    599    768    767
1450    604    636    621
1451    603    770    636
1452    701    635    608
1453    622    1115    530
1454    603    758    633
1455    770    702    607
1456    606    619    68
1457    599    651    601
1458    651    598    601
1459    772    566    568
1460    779    562    778
1461    570    788    787
1462    573    773    564
1463    561    542    560
1464    772    568    564
1465    577    560    575
1466    775    573    561
1467    87    776    576
1468    558    554    555
1469    556    559    558
1470    982    546    978
1471    571    780    572
1472    562    573    775
1473    567    792    74
1474    788    791    789
1475    780    541    779
1476    15    996    997
1477    705    78    700
1478    748    539    79
1479    996    15    540
1480    732    733    734
1481    543    790    789
1482    568    574    564
1483    787    786    570
1484    773    573    541
1485    785    565    784
1486    774    786    88
1487    565    774    772
1488    541    573    779
1489    997    790    15
1490    784    773    541
1491    995    14    107
1492    572    543    571
1493    787    88    786
1494    93    91    1122
1495    544    789    89
1496    778    780    779
1497    785    570    786
1498    785    784    571
1499    1087    979    38
1500    978    979    980
1501    794    793    529
1502    517    523    524
1503    523    516    520
1504    801    517    527
1505    685    513    684
1506    659    654    594
1507    1126    715    724
1508    721    492    723
1509    501    167    504
1510    504    502    797
1511    975    974    158
1512    802    168    500
1513    722    508    163
1514    721    723    722
1515    168    800    500
1516    495    494    496
1517    597    83    591
1518    528    793    794
1519    490    718    725
1520    501    166    500
1521    725    724    714
1522    160    195    189
1523    186    1130    977
1524    505    723    799
1525    651    771    653
1526    516    771    520
1527    806    165    487
1528    157    843    141
1529    486    142    485
1530    239    156    192
1531    321    449    320
1532    953    956    955
1533    1108    1107    1106
1534    414    152    412
1535    219    810    223
1536    147    470    251
1537    950    253    811
1538    283    1110    252
1539    825    827    826
1540    139    958    959
1541    959    812    397
1542    368    963    829
1543    968    813    140
1544    813    400    958
1545    818    815    813
1546    965    964    153
1547    844    141    841
1548    224    221    222
1549    832    368    829
1550    404    60    388
1551    398    400    399
1552    400    813    968
1553    964    847    153
1554    971    192    156
1555    964    219    820
1556    470    252    59
1557    835    831    834
1558    825    959    397
1559    835    823    827
1560    393    391    367
1561    821    828    826
1562    839    832    829
1563    404    452    389
1564    138    831    830
1565    827    823    826
1566    823    822    821
1567    823    821    826
1568    402    405    394
1569    822    395    401
1570    136    963    853
1571    827    824    835
1572    139    828    839
1573    136    1107    412
1574    837    396    836
1575    396    830    836
1576    389    60    404
1577    824    836    831
1578    853    385    270
1579    270    385    384
1580    368    833    394
1581    386    384    385
1582    138    389    834
1583    827    825    824
1584    832    821    833
1585    834    389    452
1586    838    837    397
1587    839    821    832
1588    837    836    824
1589    838    396    837
1590    836    830    831
1591    833    822    394
1592    834    403    395
1593    845    154    844
1594    815    965    153
1595    971    970    141
1596    61    968    842
1597    841    845    844
1598    140    840    846
1599    806    807    486
1600    11    843    157
1601    846    840    845
1602    812    137    397
1603    816    136    152
1604    820    219    221
1605    847    814    153
1606    141    843    841
1607    819    152    219
1608    155    62    225
1609    848    849    852
1610    365    366    60
1611    388    457    456
1612    406    378    409
1613    364    423    267
1614    422    421    369
1615    851    369    850
1616    423    364    422
1617    381    852    383
1618    850    369    849
1619    398    812    400
1620    828    825    826
1621    314    363    855
1622    313    464    314
1623    1129    985    313
1624    986    985    987
1625    421    425    369
1626    419    407    420
1627    873    930    872
1628    874    859    875
1629    58    108    103
1630    939    937    938
1631    885    884    915
1632    915    883    885
1633    873    867    871
1634    886    913    891
1635    882    903    863
1636    905    889    888
1637    927    892    926
1638    864    110    863
1639    320    254    319
1640    1001    998    96
1641    95    94    92
1642    329    938    866
1643    857    941    943
1644    940    937    859
1645    329    866    110
1646    934    941    935
1647    940    859    880
1648    860    931    929
1649    868    933    869
1650    874    873    872
1651    869    871    867
1652    941    939    120
1653    870    119    871
1654    931    872    929
1655    872    881    874
1656    119    873    871
1657    873    119    930
1658    859    881    880
1659    929    872    930
1660    875    867    874
1661    865    939    858
1662    875    865    868
1663    876    878    880
1664    858    939    941
1665    925    917    887
1666    1132    58    124
1667    877    882    118
1668    117    905    928
1669    58    864    108
1670    866    863    110
1671    931    916    872
1672    940    879    936
1673    874    881    859
1674    883    916    931
1675    895    945    57
1676    927    926    896
1677    881    876    880
1678    118    878    877
1679    884    885    860
1680    886    884    109
1681    888    913    914
1682    931    885    883
1683    911    912    116
1684    887    917    914
1685    913    109    914
1686    889    913    888
1687    914    917    888
1688    861    877    924
1689    872    916    881
1690    906    890    905
1691    907    901    904
1692    869    127    870
1693    915    891    861
1694    945    923    910
1695    116    910    911
1696    898    864    111
1697    920    899    919
1698    908    922    919
1699    899    898    897
1700    899    921    112
1701    114    113    988
1702    928    905    888
1703    108    1000    999
1704    922    909    919
1705    994    993    992
1706    111    947    946
1707    922    908    893
1708    908    919    899
1709    921    899    920
1710    921    895    115
1711    862    890    906
1712    892    917    925
1713    58    95    124
1714    907    900    901
1715    904    905    117
1716    927    907    117
1717    905    890    889
1718    877    890    882
1719    877    876    924
1720    903    862    947
1721    947    906    902
1722    946    902    904
1723    907    927    896
1724    879    863    866
1725    908    897    900
1726    112    102    1000
1727    895    57    115
1728    923    911    910
1729    57    945    894
1730    945    909    923
1731    908    900    893
1732    907    904    117
1733    925    887    912
1734    891    890    861
1735    924    876    916
1736    886    109    913
1737    117    928    927
1738    924    915    861
1739    915    886    891
1740    891    889    890
1741    885    931    860
1742    928    888    917
1743    892    928    917
1744    922    893    923
1745    902    905    904
1746    899    897    908
1747    901    946    904
1748    108    898    1000
1749    896    918    900
1750    909    920    919
1751    994    101    100
1752    116    894    910
1753    114    115    57
1754    947    862    906
1755    923    909    922
1756    891    913    889
1757    880    878    879
1758    861    890    877
1759    926    912    911
1760    947    902    946
1761    926    918    896
1762    927    928    892
1763    946    897    111
1764    897    946    901
1765    883    924    916
1766    915    924    883
1767    879    940    880
1768    937    865    875
1769    915    884    886
1770    118    863    879
1771    339    857    944
1772    869    867    868
1773    461    342    338
1774    129    126    462
1775    932    128    10
1776    934    128    933
1777    858    934    933
1778    338    342    455
1779    936    879    866
1780    936    937    940
1781    933    868    858
1782    937    875    859
1783    874    867    873
1784    933    128    932
1785    126    934    935
1786    936    866    938
1787    870    871    869
1788    869    932    127
1789    331    341    328
1790    944    857    943
1791    1124    462    338
1792    256    445    438
1793    331    454    125
1794    943    941    120
1795    939    938    120
1796    341    340    329
1797    925    912    926
1798    923    918    911
1799    900    918    893
1800    111    863    903
1801    947    111    903
1802    906    905    902
1803    950    284    949
1804    287    276    288
1805    294    351    296
1806    351    811    253
1807    322    320    123
1808    1111    284    1110
1809    284    948    949
1810    439    290    352
1811    1106    270    382
1812    950    59    284
1813    59    285    235
1814    956    952    955
1815    458    431    432
1816    473    479    243
1817    810    953    151
1818    475    249    473
1819    221    223    222
1820    273    809    416
1821    820    221    62
1822    415    412    413
1823    815    814    813
1824    839    962    139
1825    818    817    815
1826    818    813    958
1827    362    281    361
1828    466    442    262
1829    348    1116    466
1830    308    305    307
1831    136    817    963
1832    829    963    962
1833    394    405    368
1834    853    963    368
1835    209    225    224
1836    153    814    815
1837    810    152    957
1838    814    140    813
1839    199    208    236
1840    198    197    1104
1841    808    479    480
1842    1104    229    180
1843    968    140    842
1844    814    847    840
1845    493    162    170
1846    144    184    966
1847    802    485    168
1848    173    158    972
1849    975    173    174
1850    841    843    842
1851    176    194    177
1852    806    486    489
1853    144    185    184
1854    804    160    966
1855    156    239    191
1856    173    975    158
1857    485    174    175
1858    157    970    974
1859    973    969    12
1860    751    750    977
1861    676    662    675
1862    185    1130    184
1863    978    981    979
1864    74    983    76
1865    1087    38    34
1866    1066    1065    32
1867    76    75    74
1868    77    982    980
1869    1022    45    42
1870    34    1088    1087
1871    75    76    553
1872    88    567    566
1873    546    74    545
1874    792    544    545
1875    361    370    362
1876    987    984    263
1877    371    465    306
1878    1128    314    855
1879    987    960    986
1880    316    311    464
1881    464    311    463
1882    266    986    960
1883    1007    105    1003
1884    898    111    897
1885    1076    49    989
1886    43    47    44
1887    1082    1081    98
1888    1086    1084    1085
1889    1077    1076    989
1890    1    992    993
1891    100    56    99
1892    115    988    102
1893    99    1081    1084
1894    99    1006    100
1895    1103    43    50
1896    1080    43    44
1897    539    538    79
1898    543    791    571
1899    187    976    547
1900    783    572    778
1901    96    998    100
1902    1001    103    999
1903    100    998    988
1904    998    102    988
1905    897    901    900
1906    115    102    112
1907    999    102    998
1908    1075    55    1074
1909    105    1007    1005
1910    921    115    112
1911    106    1085    991
1912    1005    1007    1006
1913    1081    990    97
1914    1084    1006    99
1915    1003    1004    1007
1916    1006    1084    1005
1917    1007    1004    96
1918    1001    1004    1002
1919    1004    1003    104
1920    105    13    1008
1921    1077    990    1131
1922    92    1122    145
1923    990    989    97
1924    1052    52    1049
1925    1134    1135    1101
1926    8    70    1014
1927    603    702    770
1928    16    73    72
1929    93    14    91
1930    546    981    978
1931    1013    71    69
1932    634    761    609
1933    71    1013    18
1934    1011    1137    18
1935    55    1016    1074
1936    1020    1083    6
1937    1016    1015    54
1938    1051    1055    1049
1939    1051    1032    1033
1940    1069    1117    1050
1941    53    1048    1055
1942    1083    1020    990
1943    990    1077    989
1944    1131    990    1020
1945    1015    1016    1019
1946    56    98    99
1947    1063    31    1062
1948    42    39    1022
1949    1080    39    9
1950    1027    1072    1028
1951    27    1066    37
1952    1062    1059    1025
1953    1028    32    1025
1954    1061    1060    1037
1955    1057    1056    1027
1956    1058    1029    1057
1957    1065    1024    1064
1958    1040    1036    1038
1959    1046    1039    1043
1960    1040    1038    1030
1961    1048    1039    1047
1962    1069    1032    1117
1963    4    1031    1032
1964    1053    51    1018
1965    1048    53    1039
1966    1067    31    1063
1967    46    41    45
1968    1022    39    44
1969    47    46    45
1970    39    42    40
1971    1035    1067    1047
1972    1025    1059    1058
1973    1044    53    1045
1974    1045    1033    28
1975    1060    1057    1029
1976    1039    1044    1043
1977    1048    1047    1034
1978    1068    1054    1034
1979    1038    1036    1035
1980    1030    1038    1043
1981    1042    1037    1041
1982    1036    1041    1029
1983    1060    1026    1057
1984    1045    1030    1044
1985    1037    1042    28
1986    1034    1067    1068
1987    1040    1030    1042
1988    1059    31    1036
1989    1030    1045    1042
1990    1033    53    1051
1991    1049    1055    1054
1992    1036    31    1035
1993    1044    1030    1043
1994    1044    1039    53
1995    1035    1047    1046
1996    1047    1067    1034
1997    1041    1040    1042
1998    1079    1017    1071
1999    1012    13    106
2000    1055    1048    1054
2001    1049    52    1119
2002    54    1017    1016
2003    1018    51    49
2004    1031    1033    1032
2005    1051    1119    1118
2006    995    9    90
2007    28    1033    1031
2008    51    1052    30
2009    1038    1046    1043
2010    1046    1038    1035
2011    31    1059    1062
2012    1068    46    30
2013    1073    7    35
2014    1064    1062    1025
2015    35    36    1073
2016    38    979    40
2017    1054    30    1052
2018    1045    28    1042
2019    1041    1036    1040
2020    1061    1026    1060
2021    1037    1060    1041
2022    1026    1056    1057
2023    1103    30    48
2024    41    1024    1023
2025    1054    1068    30
2026    1025    1058    1028
2027    1068    1063    46
2028    27    1023    1066
2029    7    1073    1072
2030    37    1066    33
2031    1073    36    33
2032    1047    1039    1046
2033    1029    1059    1036
2034    48    30    46
2035    1048    1034    1054
2036    52    1071    1050
2037    1118    1050    1117
2038    1079    1018    1078
2039    30    1103    51
2040    1017    1070    1071
2041    1071    1070    29
2042    1064    1024    1062
2043    32    1064    1025
2044    546    545    9
2045    1072    33    1066
2046    1076    1018    49
2047    1078    1074    1079
2048    1077    55    1076
2049    50    1009    51
2050    1075    1018    1076
2051    1018    1075    1078
2052    1131    55    1077
2053    1021    6    1083
2054    1050    29    1069
2055    1052    51    1053
2056    1079    1074    1017
2057    1117    1032    1051
2058    981    40    979
2059    13    107    94
2060    114    988    115
2061    1083    990    1081
2062    1082    1083    1081
2063    1083    1082    1021
2064    1019    6    1015
2065    1012    989    49
2066    994    100    988
2067    1084    1081    97
2068    96    1004    1001
2069    106    13    105
2070    104    1002    1004
2071    105    1085    106
2072    25    24    1087
2073    1010    22    1137
2074    37    33    36
2075    1121    1099    1094
2076    1102    1093    23
2077    24    1096    1089
2078    1101    1133    1134
2079    1098    1099    1090
2080    1099    1100    1093
2081    25    1095    1094
2082    1100    1091    1093
2083    1135    1134    1102
2084    1010    1137    1011
2085    25    1094    1096
2086    1096    24    25
2087    8    1136    1101
2088    1097    1096    1094
2089    23    1093    1091
2090    1100    3    1091
2091    1095    1088    19
2092    1098    1100    1099
2093    1099    1097    1094
2094    1097    1089    1096
2095    1099    1093    1097
2096    1089    1093    1102
2097    1089    22    24
2098    617    17    615
2099    20    21    77
2100    13    1012    107
2101    44    47    45
2102    966    230    144
2103    482    200    201
2104    453    441    433
2105    1105    427    375
2106    817    136    816
2107    383    268    380
2108    367    404    393
2109    810    219    152
2110    410    409    272
2111    853    1107    136
2112    59    235    234
2113    372    375    278
2114    286    1109    283
2115    252    467    283
2116    440    286    282
2117    1110    59    252
2118    284    1111    948
2119    286    440    287
2120    459    441    440
2121    459    1114    458
2122    252    471    469
2123    440    276    287
2124    600    601    1115
2125    794    529    653
2126    444    443    133
2127    347    325    122
2128    1119    1050    1118
2129    1118    1117    1051
2130    1049    1054    1052
2131    1079    1053    1018
2132    1071    29    1050
2133    1053    1079    52
2134    1087    24    20
2135    1094    1095    1120
2136    1088    25    1087
2137    1092    3    1100
2138    976    973    12
2139    91    547    12
2140    663    679    664
2141    735    747    732
2142    460    944    340
2143    345    333    260
2144    635    1125    612
2145    768    766    767
2146    164    799    503
2147    506    497    186
2148    421    279    420
2149    984    985    121
2150    985    1129    121
2151    426    359    419
2152    985    266    313
2153    960    987    265
2154    497    496    63
2155    749    658    748
2156    1076    55    1075
2157    6    1019    1020
2158    863    118    882
2159    1132    322    110
2160    1100    1098    1092
2161    1014    70    71
2162    1134    1133    1102
2163    1102    23    1135
2164    1102    22    1089
2165    1093    1089    1097
2166    24    22    21
2167    757    613    634
2168    16    606    645
